<?xml version="1.0" encoding="UTF-8"?>
<svg version="1.1" xmlns="http://www.w3.org/2000/svg" width="500" height="500">
<path d="M0 0 C0.67340175 -0.00175304 1.3468035 -0.00350607 2.04061136 -0.00531223 C4.30733024 -0.00998095 6.57398523 -0.0075045 8.84070683 -0.00507832 C10.47814186 -0.00694584 12.11557645 -0.00924631 13.75301033 -0.01194364 C18.26074975 -0.01807514 22.76847065 -0.01792646 27.27621329 -0.01674926 C32.13450097 -0.0165456 36.99278264 -0.02206069 41.85106754 -0.02680683 C51.37197337 -0.03512111 60.89287301 -0.03786201 70.41378217 -0.03841921 C78.15010641 -0.03889396 85.8864286 -0.04094664 93.62275219 -0.04411983 C115.54279109 -0.05292817 137.46282509 -0.05753888 159.38286578 -0.05678936 C160.56512779 -0.0567494 161.74738981 -0.05670945 162.96547794 -0.05666828 C164.7410287 -0.05660696 164.7410287 -0.05660696 166.55244917 -0.0565444 C185.74470926 -0.05613777 204.93694974 -0.06571101 224.12920415 -0.07980665 C243.82208243 -0.0941562 263.51495114 -0.10107763 283.20783478 -0.10021287 C294.26940111 -0.09988043 305.33094688 -0.10264808 316.39250851 -0.11339092 C325.80889218 -0.1224772 335.22524598 -0.12468661 344.64163213 -0.1178815 C349.44825774 -0.11460693 354.25482597 -0.11459327 359.06144619 -0.12323475 C363.45880515 -0.13105934 367.85606083 -0.12970997 372.25341714 -0.12095062 C373.84691615 -0.11940668 375.44042272 -0.12126515 377.03391283 -0.12681069 C379.19524041 -0.13383611 381.35620221 -0.1286047 383.51751709 -0.12025452 C384.71944197 -0.12047188 385.92136684 -0.12068925 387.15971369 -0.12091321 C391.076495 0.1882058 393.97512579 1.07062827 397.07167912 3.50363445 C399.89267125 7.17092423 399.44777458 11.5267379 399.45031357 15.97874641 C399.45206661 16.67072027 399.45381964 17.36269413 399.4556258 18.07563689 C399.46029557 20.40553266 399.45781779 22.73536629 399.45539188 25.0652647 C399.45725936 26.74807253 399.45955981 28.43087992 399.46225721 30.11368662 C399.46838937 34.74684321 399.46823995 39.37998179 399.46706283 44.01314151 C399.46685918 49.0063997 399.4723741 53.99965204 399.4771204 58.99290752 C399.48543504 68.77851148 399.4881756 78.56410941 399.48873278 88.3497166 C399.48920751 96.30104847 399.49126011 104.25237836 399.4944334 112.2037096 C399.50324184 134.73246129 399.50785243 157.26120821 399.50710293 179.78996163 C399.50704299 181.61264008 399.50704299 181.61264008 399.50698185 183.47214031 C399.50694097 184.68873758 399.50690009 185.90533485 399.50685797 187.1587987 C399.50645134 206.88454699 399.5160246 226.6102762 399.53012022 246.33601897 C399.54446941 266.57582322 399.55139122 286.81561815 399.55052644 307.05542761 C399.55019399 318.42439616 399.55296218 329.79334471 399.56370449 341.16230869 C399.57279031 350.84036641 399.57500056 360.51839505 399.56819507 370.19645517 C399.56492026 375.13674781 399.56490768 380.07698461 399.57354832 385.017272 C399.58137188 389.53675791 399.5800246 394.05614334 399.57126419 398.57562668 C399.56972002 400.21353992 399.57157956 401.85146051 399.57712426 403.48936509 C399.58414763 405.71059334 399.57891985 407.93146548 399.57056808 410.15268135 C399.57089414 412.00569175 399.57089414 412.00569175 399.57122678 413.8961367 C399.26595639 417.85043482 398.40249371 420.75305224 395.94667912 423.87863445 C392.55377304 426.4885622 388.72129046 426.24468548 384.58628178 426.21283245 C383.41580799 426.20672451 382.24533421 426.20061657 381.03939152 426.19432354 C379.75880863 426.18279751 378.47822575 426.17127148 377.15883732 426.15939617 C375.79356064 426.15096614 374.42828016 426.14313305 373.06299686 426.13585186 C370.88197872 426.12410227 368.70097062 426.11190476 366.51996577 426.09788299 C361.10921753 426.06327866 355.69864242 426.04715475 350.28778934 426.04223919 C349.50177052 426.0415065 348.7157517 426.04077381 347.90591413 426.04001892 C344.66386096 426.03735452 341.42180768 426.03530779 338.1797539 426.03354335 C328.98457287 426.02776286 319.79024167 426.00402591 310.59536076 425.92648602 C303.28677501 425.86497449 295.97923325 425.84246218 288.67040795 425.86529839 C284.80553469 425.87591667 280.94294534 425.86711867 277.07841778 425.81097317 C273.43868941 425.75853603 269.80254661 425.75810051 266.16267681 425.7963419 C264.20211186 425.8036637 262.2415755 425.75666936 260.28160954 425.70765972 C254.96814571 425.80674693 251.65536832 425.95366252 247.57365322 429.54962826 C245.29752048 432.31782512 243.29603541 435.14102709 241.32167912 438.12863445 C240.36095328 439.25799935 239.3759154 440.36784127 238.35292912 441.44113445 C234.00854836 446.05368686 229.79641161 450.68860978 225.82167912 455.62863445 C222.19009836 460.14217054 218.36503998 464.40234249 214.41640568 468.63498211 C211.31583391 471.98033586 208.41583143 475.43393308 205.57167912 479.00363445 C196.79883203 489.79017775 196.79883203 489.79017775 191.00527287 490.58175945 C186.47488845 490.02446932 184.22197 488.20182564 181.00917912 485.19113445 C180.44795353 484.69113934 179.88672794 484.19114422 179.30849552 483.67599773 C177.63106597 482.1759932 175.97511138 480.65499691 174.32167912 479.12863445 C172.61437418 477.58582897 170.90613653 476.04405461 169.19667912 474.50363445 C168.3961713 473.77531414 167.59566349 473.04699383 166.77089787 472.2966032 C164.24087629 470.05711042 161.64260948 467.93275886 159.00917912 465.81613445 C154.19582475 461.92607514 149.67406461 457.79991611 145.1605463 453.57297039 C140.95786967 449.65927448 136.58010603 446.02608467 132.09902287 442.43332195 C128.37162622 439.34026426 124.82513081 436.06923051 121.2921381 432.75729656 C117.32671416 429.05556155 114.90865503 426.88191443 109.40093327 426.8636198 C108.38592243 426.85534664 107.3709116 426.84707348 106.32514286 426.83854961 C104.6559454 426.84002247 104.6559454 426.84002247 102.95302677 426.84152508 C101.19414379 426.83127552 101.19414379 426.83127552 99.39972782 426.8208189 C96.18270696 426.80365547 92.9657926 426.79513466 89.74873495 426.78978062 C86.38110728 426.7815896 83.01356353 426.76066224 79.64598942 426.74057293 C71.07959188 426.69159446 62.51315885 426.65929044 53.94667912 426.62863445 C44.70543005 426.59554433 35.46424644 426.55958058 26.22309816 426.50450373 C22.87116744 426.4850017 19.51932531 426.46974957 16.16734028 426.46415997 C12.42783737 426.45672766 8.68856366 426.43746979 4.94912052 426.41574383 C3.84037067 426.41672573 2.73162083 426.41770763 1.5892725 426.41871929 C0.56862202 426.41044613 -0.45202847 426.40217297 -1.50360775 426.3936491 C-2.38739794 426.39071598 -3.27118813 426.38778286 -4.18175983 426.38476086 C-7.7473286 426.01896315 -10.60695664 424.97042064 -13.42832088 422.75363445 C-16.24931302 419.08634468 -15.80441635 414.73053101 -15.80695534 410.27852249 C-15.80870837 409.58654863 -15.81046141 408.89457478 -15.81226757 408.18163201 C-15.81693734 405.85173624 -15.81445956 403.52190261 -15.81203365 401.1920042 C-15.81390113 399.50919638 -15.81620158 397.82638899 -15.81889898 396.14358228 C-15.82503114 391.5104257 -15.82488172 386.87728712 -15.8237046 382.24412739 C-15.82350095 377.25086921 -15.82901587 372.25761686 -15.83376217 367.26436138 C-15.84207681 357.47875743 -15.84481737 347.6931595 -15.84537455 337.90755231 C-15.84584928 329.95622043 -15.84790188 322.00489055 -15.85107517 314.0535593 C-15.85988361 291.52480762 -15.8644942 268.9960607 -15.8637447 246.46730728 C-15.86370474 245.25218831 -15.86366479 244.03706935 -15.86362362 242.78512859 C-15.86358274 241.56853132 -15.86354186 240.35193406 -15.86349974 239.0984702 C-15.86309311 219.37272192 -15.87266637 199.6469927 -15.88676199 179.92124993 C-15.90111118 159.68144569 -15.90803299 139.44165076 -15.90716821 119.20184129 C-15.90683576 107.83287274 -15.90960395 96.46392419 -15.92034626 85.09496021 C-15.92943208 75.4169025 -15.93164232 65.73887385 -15.92483684 56.06081373 C-15.92156203 51.1205211 -15.92154945 46.1802843 -15.93019009 41.23999691 C-15.93801365 36.72051099 -15.93666637 32.20112557 -15.92790595 27.68164223 C-15.92636179 26.04372899 -15.92822133 24.4058084 -15.93376603 22.76790381 C-15.9407894 20.54667556 -15.93556162 18.32580343 -15.92720985 16.10458755 C-15.92742722 14.86924729 -15.92764459 13.63390702 -15.92786855 12.3611322 C-15.62259816 8.40683409 -14.75913548 5.50421667 -12.30332088 2.37863445 C-8.67901966 -0.40928957 -4.40291113 0.00258081 0 0 Z " fill="#FEFEFE" transform="translate(61.67832088470459,0.8713655471801758)"/>
<path d="M0 0 C4.14398428 0.01704842 8.28738831 0.00693894 12.43135262 -0.01032352 C101.91640147 -0.32581097 101.91640147 -0.32581097 124.29711914 20.26611328 C132.72431831 29.76991499 138.31622098 41.27461323 138.18005371 54.03700256 C138.18941365 55.41236739 138.18941365 55.41236739 138.19896269 56.81551737 C138.21479854 59.85929546 138.20232545 62.90226222 138.18969727 65.94604492 C138.19512252 68.13979048 138.20224744 70.3335324 138.2109375 72.52726746 C138.22912453 78.46519815 138.22212256 84.40284989 138.20942116 90.34078526 C138.19927089 96.56390316 138.20869235 102.78699771 138.21496582 109.01011658 C138.22270096 120.12677166 138.21029745 131.24331732 138.18992847 142.35995077 C138.17205489 152.42614633 138.1751677 162.49215736 138.19360352 172.55834961 C138.21503969 184.26814257 138.22296199 195.97782795 138.21115446 207.68763822 C138.20492677 213.87890676 138.20406423 220.07004835 138.21730042 226.26130867 C138.22887546 232.08171905 138.22080254 237.90178171 138.19772339 243.72215462 C138.19244544 245.85501529 138.19393436 247.98790535 138.20277405 250.12075424 C138.21374894 253.03829718 138.1999422 255.95473462 138.18005371 258.87220764 C138.19343804 260.13001111 138.19343804 260.13001111 138.20709276 261.41322476 C138.08267327 270.86049263 133.80588243 278.39925875 127.67211914 285.39111328 C121.20576777 291.2266011 114.53138444 294.81298306 105.67211914 294.39111328 C110.3001024 299.73931926 115.01718778 304.98643212 119.85961914 310.14111328 C120.50672852 310.83140625 121.15383789 311.52169922 121.82055664 312.23291016 C126.3447576 317.03709605 130.968934 321.72467998 135.66162109 326.36352539 C138.97315336 329.65122144 142.13063929 333.0184907 145.13305664 336.59033203 C146.20005282 337.83877173 147.3137752 339.04818029 148.46118164 340.22314453 C152.64185562 344.60426179 152.64185562 344.60426179 152.79711914 348.64111328 C151.4966321 351.82008159 150.5805988 352.64502048 147.67211914 354.39111328 C145.18815613 354.80570984 145.18815613 354.80570984 142.37207031 354.85864258 C141.31384567 354.88423752 140.25562103 354.90983246 139.16532898 354.936203 C138.02674942 354.94581558 136.88816986 354.95542816 135.71508789 354.96533203 C134.53876297 354.98006058 133.36243805 354.99478912 132.15046692 355.00996399 C129.6615753 355.03391497 127.17258917 355.04933603 124.68359375 355.05688477 C120.8832015 355.07847928 117.08685682 355.1586658 113.28735352 355.24072266 C110.86745289 355.25671877 108.447526 355.26920346 106.02758789 355.27783203 C104.89508102 355.30971115 103.76257416 355.34159027 102.5957489 355.37443542 C94.87278549 355.30876465 94.87278549 355.30876465 91.46235657 352.70222473 C89.66806524 350.68484561 88.14979552 348.64782925 86.67211914 346.39111328 C86.06730713 345.60260986 85.46249512 344.81410645 84.83935547 344.00170898 C84.39873779 343.36322021 83.95812012 342.72473145 83.50415039 342.06689453 C83.00334961 341.34824219 82.50254883 340.62958984 81.98657227 339.88916016 C81.49092773 339.16792969 80.9952832 338.44669922 80.48461914 337.70361328 C79.4717838 336.24034292 78.45749518 334.77807725 77.44165039 333.31689453 C76.97065918 332.63836426 76.49966797 331.95983398 76.0144043 331.26074219 C74.8410776 329.62645048 73.58122345 328.05499145 72.30883789 326.49658203 C70.67211914 324.39111328 70.67211914 324.39111328 70.67211914 322.39111328 C54.33780328 322.10032898 38.00607345 321.91401236 21.66944599 321.84964561 C14.08253972 321.8173572 6.49872932 321.75180494 -1.08691406 321.60595703 C-7.70435004 321.47881125 -14.31884721 321.41609851 -20.93754512 321.42848742 C-24.43890083 321.43284966 -27.93354825 321.40651417 -31.43350792 321.30277634 C-45.75027742 320.38267443 -45.75027742 320.38267443 -58.74115372 325.13907623 C-62.80127766 329.30387474 -65.581278 333.98194992 -68.15738869 339.16379166 C-69.93631502 342.54889853 -72.18149042 345.42839713 -74.51538086 348.45361328 C-75.21018555 349.39333984 -75.90499023 350.33306641 -76.62084961 351.30126953 C-78.32788086 353.39111328 -78.32788086 353.39111328 -80.32788086 354.39111328 C-82.06266346 354.50711202 -83.80178252 354.56070861 -85.5402832 354.58398438 C-87.1724025 354.60807877 -87.1724025 354.60807877 -88.8374939 354.63265991 C-93.81084637 354.67700839 -98.7840646 354.71816239 -103.75756836 354.74121094 C-106.38428596 354.75779047 -109.01095809 354.78510621 -111.63745117 354.82324219 C-115.41731254 354.87786446 -119.19611607 354.89986238 -122.97631836 354.91455078 C-124.15245697 354.93722015 -125.32859558 354.95988953 -126.54037476 354.98324585 C-134.65860675 354.96210404 -134.65860675 354.96210404 -138.08764648 352.03662109 C-139.32788086 349.39111328 -139.32788086 349.39111328 -139.52319336 346.53955078 C-137.78388395 341.95823252 -134.7445592 339.31447021 -131.20288086 336.01611328 C-129.88523459 334.76096407 -128.57012481 333.50314666 -127.25756836 332.24267578 C-126.26249268 331.28723877 -126.26249268 331.28723877 -125.24731445 330.3125 C-123.4378558 328.50120013 -121.76824403 326.63669948 -120.10913086 324.68798828 C-115.06324013 318.80993309 -109.46094144 313.45562911 -103.95288086 308.01611328 C-101.77553166 305.86534027 -99.60151984 303.71127205 -97.42944336 301.55517578 C-96.93159332 301.06562408 -96.43374329 300.57607239 -95.92080688 300.07168579 C-93.28971664 297.48532898 -93.28971664 297.48532898 -91.32788086 294.39111328 C-92.27663086 294.47361328 -93.22538086 294.55611328 -94.20288086 294.64111328 C-102.6752577 294.57278766 -109.386589 290.20920519 -115.35131836 284.53955078 C-122.29508273 276.99198082 -124.63243967 269.38105134 -124.5953064 259.27766418 C-124.59983751 258.36966668 -124.60436862 257.46166918 -124.60903704 256.5261566 C-124.62168031 253.48865854 -124.6200607 250.4513398 -124.6184082 247.41381836 C-124.62439357 245.23376231 -124.63119914 243.05370837 -124.63876343 240.87365723 C-124.65643173 234.95402991 -124.66111922 229.03446041 -124.662395 223.11480927 C-124.66381692 219.41439542 -124.66808734 215.71399625 -124.67338943 212.01358604 C-124.69284995 198.43069337 -124.69991963 184.84784624 -124.69823857 171.26494064 C-124.6973759 159.90350833 -124.72012875 148.54224808 -124.74997365 137.18085748 C-124.77615192 126.84603433 -124.78685294 116.51126976 -124.78557551 106.17641371 C-124.78506625 100.00735931 -124.79072962 93.83846444 -124.81193161 87.66944313 C-124.83133939 81.86388185 -124.83142083 76.05863184 -124.81689835 70.25305939 C-124.81481218 68.12748191 -124.81949958 66.00188482 -124.83161926 63.87634087 C-124.94125101 43.3097906 -124.94125101 43.3097906 -120.32788086 34.39111328 C-119.80967773 33.34697266 -119.29147461 32.30283203 -118.75756836 31.22705078 C-110.72394458 18.51051063 -100.70579518 11.21052398 -86.32788086 7.39111328 C-57.88352074 1.1647269 -28.99327474 -0.12030898 0 0 Z " fill="#F86143" transform="translate(247.327880859375,28.60888671875)"/>
<path d="M0 0 C0.80520411 -0.00638882 1.61040822 -0.01277764 2.44001245 -0.01936007 C5.13576762 -0.03461007 7.83005306 -0.01414953 10.52575684 0.00622559 C12.45924873 0.00272438 14.39273774 -0.00293418 16.32621765 -0.0105896 C21.5762809 -0.0248473 26.82582102 -0.00776622 32.07583427 0.01569557 C37.56813242 0.03578951 43.06040852 0.02992577 48.55273438 0.02758789 C57.77641436 0.02764148 66.9998896 0.04740786 76.22351074 0.07946777 C86.88962161 0.11636119 97.55546423 0.12514347 108.22163057 0.11817026 C118.47910468 0.11186655 128.73648673 0.12261713 138.99394226 0.14213562 C143.36066499 0.15031363 147.72734069 0.15301842 152.09407043 0.15144348 C157.23559958 0.15056499 162.37687352 0.1647713 167.51833534 0.19067001 C169.40614396 0.19783649 171.29397971 0.19991313 173.18179893 0.19655228 C175.75713763 0.19284177 178.33172977 0.20756984 180.90698242 0.22705078 C181.65552443 0.22172286 182.40406644 0.21639493 183.17529154 0.21090555 C187.59621227 0.26867304 190.43878641 0.89045667 193.95349121 3.62145996 C195.17594224 6.06636201 195.08735359 7.65678036 195.10066223 10.39071655 C195.11139519 11.90071732 195.11139519 11.90071732 195.12234497 13.44122314 C195.12503387 14.54983704 195.12772278 15.65845093 195.13049316 16.80065918 C195.13706436 17.96495453 195.14363556 19.12924988 195.15040588 20.3288269 C195.17017137 24.19460101 195.18180754 28.06033625 195.19177246 31.92614746 C195.19584799 33.24322819 195.19992352 34.56030891 195.20412254 35.91730118 C195.22317323 42.16648536 195.23740533 48.41565773 195.24573451 54.66486537 C195.25551141 61.88126822 195.28184279 69.09736469 195.32223541 76.31365955 C195.35237849 81.88993972 195.36720159 87.46613196 195.37051553 93.04249203 C195.37286788 96.37387203 195.38381707 99.70484936 195.4069767 103.03615952 C195.43120895 106.75218135 195.43043202 110.46739577 195.42346191 114.18347168 C195.442677 115.84031982 195.442677 115.84031982 195.46228027 117.53063965 C195.45186455 119.04909988 195.45186455 119.04909988 195.4412384 120.59823608 C195.44362676 121.47687254 195.44601511 122.355509 195.44847584 123.2607708 C194.75022119 126.59089881 193.74758389 127.68099834 190.95349121 129.62145996 C188.13780529 130.01218352 185.71405537 130.15802236 182.89988708 130.12266541 C181.67286987 130.130967 181.67286987 130.130967 180.42106444 130.1394363 C177.67627588 130.15306461 174.93239319 130.1380621 172.18762207 130.12316895 C170.22147739 130.1269513 168.25533536 130.13245065 166.28919983 130.13954163 C160.94631751 130.15352342 155.60375623 130.14230769 150.26089168 130.12583041 C144.67555778 130.11200024 139.0902429 130.1184376 133.50489807 130.1219635 C124.12564914 130.12466701 114.74652808 130.11117713 105.36730957 130.0880127 C94.51430236 130.06139437 83.66150888 130.05965782 72.8084802 130.07140106 C62.37854898 130.08216897 51.94869528 130.07600003 41.51877022 130.06184578 C37.07502987 130.05607819 32.63134611 130.05617471 28.1876049 130.06091118 C22.95828652 130.06567304 17.72920309 130.05561214 12.49992943 130.03395653 C10.57741336 130.02837797 8.65487475 130.02793311 6.73235703 130.03290939 C4.11467857 130.03883681 1.49772471 130.02640651 -1.11988831 130.00914001 C-2.26997229 130.01815508 -2.26997229 130.01815508 -3.44329029 130.02735227 C-8.54857244 129.96581389 -8.54857244 129.96581389 -10.97942257 128.28472996 C-12.98711138 125.15534032 -13.17704016 122.42505139 -13.20040894 118.81460571 C-13.2090094 117.82483734 -13.21760986 116.83506897 -13.22647095 115.81530762 C-13.2307309 114.73056152 -13.23499084 113.64581543 -13.23937988 112.52819824 C-13.24755737 111.3848703 -13.25573486 110.24154236 -13.26416016 109.06356812 C-13.28901182 105.27297492 -13.30552753 101.48241911 -13.31994629 97.69177246 C-13.32526997 96.39892208 -13.33059364 95.1060717 -13.33607864 93.77404404 C-13.35730478 88.3421215 -13.37643565 82.91021115 -13.38770103 77.47825813 C-13.40394534 69.69742387 -13.43714392 61.9170885 -13.49410188 54.1364423 C-13.53746884 48.00311339 -13.55344553 41.86998027 -13.55983353 35.73650742 C-13.566563 33.12814655 -13.58182863 30.51979344 -13.60572433 27.91153336 C-13.63723141 24.26513673 -13.63743384 20.62000692 -13.63000488 16.97351074 C-13.64641022 15.89281311 -13.66281555 14.81211548 -13.67971802 13.69866943 C-13.67139954 12.70326141 -13.66308105 11.70785339 -13.6545105 10.68228149 C-13.65947572 9.38978076 -13.65947572 9.38978076 -13.66454124 8.0711689 C-11.865344 0.93965092 -6.50106684 -0.10871717 0 0 Z " fill="#050202" transform="translate(163.0465087890625,83.3785400390625)"/>
<path d="M0 0 C4.14398428 0.01704842 8.28738831 0.00693894 12.43135262 -0.01032352 C101.91640147 -0.32581097 101.91640147 -0.32581097 124.29711914 20.26611328 C132.72431831 29.76991499 138.31622098 41.27461323 138.18005371 54.03700256 C138.18941365 55.41236739 138.18941365 55.41236739 138.19896269 56.81551737 C138.21479854 59.85929546 138.20232545 62.90226222 138.18969727 65.94604492 C138.19512252 68.13979048 138.20224744 70.3335324 138.2109375 72.52726746 C138.22912453 78.46519815 138.22212256 84.40284989 138.20942116 90.34078526 C138.19927089 96.56390316 138.20869235 102.78699771 138.21496582 109.01011658 C138.22270096 120.12677166 138.21029745 131.24331732 138.18992847 142.35995077 C138.17205489 152.42614633 138.1751677 162.49215736 138.19360352 172.55834961 C138.21503969 184.26814257 138.22296199 195.97782795 138.21115446 207.68763822 C138.20492677 213.87890676 138.20406423 220.07004835 138.21730042 226.26130867 C138.22887546 232.08171905 138.22080254 237.90178171 138.19772339 243.72215462 C138.19244544 245.85501529 138.19393436 247.98790535 138.20277405 250.12075424 C138.21374894 253.03829718 138.1999422 255.95473462 138.18005371 258.87220764 C138.19343804 260.13001111 138.19343804 260.13001111 138.20709276 261.41322476 C138.08267327 270.86049263 133.80588243 278.39925875 127.67211914 285.39111328 C121.20576777 291.2266011 114.53138444 294.81298306 105.67211914 294.39111328 C110.3001024 299.73931926 115.01718778 304.98643212 119.85961914 310.14111328 C120.50672852 310.83140625 121.15383789 311.52169922 121.82055664 312.23291016 C126.3447576 317.03709605 130.968934 321.72467998 135.66162109 326.36352539 C138.97315336 329.65122144 142.13063929 333.0184907 145.13305664 336.59033203 C146.20005282 337.83877173 147.3137752 339.04818029 148.46118164 340.22314453 C152.64185562 344.60426179 152.64185562 344.60426179 152.79711914 348.64111328 C151.4966321 351.82008159 150.5805988 352.64502048 147.67211914 354.39111328 C145.18815613 354.80570984 145.18815613 354.80570984 142.37207031 354.85864258 C141.31384567 354.88423752 140.25562103 354.90983246 139.16532898 354.936203 C138.02674942 354.94581558 136.88816986 354.95542816 135.71508789 354.96533203 C134.53876297 354.98006058 133.36243805 354.99478912 132.15046692 355.00996399 C129.6615753 355.03391497 127.17258917 355.04933603 124.68359375 355.05688477 C120.8832015 355.07847928 117.08685682 355.1586658 113.28735352 355.24072266 C110.86745289 355.25671877 108.447526 355.26920346 106.02758789 355.27783203 C104.89508102 355.30971115 103.76257416 355.34159027 102.5957489 355.37443542 C94.87278549 355.30876465 94.87278549 355.30876465 91.46235657 352.70222473 C89.66806524 350.68484561 88.14979552 348.64782925 86.67211914 346.39111328 C86.06730713 345.60260986 85.46249512 344.81410645 84.83935547 344.00170898 C84.39873779 343.36322021 83.95812012 342.72473145 83.50415039 342.06689453 C83.00334961 341.34824219 82.50254883 340.62958984 81.98657227 339.88916016 C81.49092773 339.16792969 80.9952832 338.44669922 80.48461914 337.70361328 C79.4717838 336.24034292 78.45749518 334.77807725 77.44165039 333.31689453 C76.97065918 332.63836426 76.49966797 331.95983398 76.0144043 331.26074219 C74.8410776 329.62645048 73.58122345 328.05499145 72.30883789 326.49658203 C70.67211914 324.39111328 70.67211914 324.39111328 70.67211914 322.39111328 C54.33780328 322.10032898 38.00607345 321.91401236 21.66944599 321.84964561 C14.08253972 321.8173572 6.49872932 321.75180494 -1.08691406 321.60595703 C-7.70435004 321.47881125 -14.31884721 321.41609851 -20.93754512 321.42848742 C-24.43890083 321.43284966 -27.93354825 321.40651417 -31.43350792 321.30277634 C-45.75027742 320.38267443 -45.75027742 320.38267443 -58.74115372 325.13907623 C-62.80127766 329.30387474 -65.581278 333.98194992 -68.15738869 339.16379166 C-69.93631502 342.54889853 -72.18149042 345.42839713 -74.51538086 348.45361328 C-75.21018555 349.39333984 -75.90499023 350.33306641 -76.62084961 351.30126953 C-78.32788086 353.39111328 -78.32788086 353.39111328 -80.32788086 354.39111328 C-82.06266346 354.50711202 -83.80178252 354.56070861 -85.5402832 354.58398438 C-87.1724025 354.60807877 -87.1724025 354.60807877 -88.8374939 354.63265991 C-93.81084637 354.67700839 -98.7840646 354.71816239 -103.75756836 354.74121094 C-106.38428596 354.75779047 -109.01095809 354.78510621 -111.63745117 354.82324219 C-115.41731254 354.87786446 -119.19611607 354.89986238 -122.97631836 354.91455078 C-124.15245697 354.93722015 -125.32859558 354.95988953 -126.54037476 354.98324585 C-134.65860675 354.96210404 -134.65860675 354.96210404 -138.08764648 352.03662109 C-139.32788086 349.39111328 -139.32788086 349.39111328 -139.52319336 346.53955078 C-137.78388395 341.95823252 -134.7445592 339.31447021 -131.20288086 336.01611328 C-129.88523459 334.76096407 -128.57012481 333.50314666 -127.25756836 332.24267578 C-126.26249268 331.28723877 -126.26249268 331.28723877 -125.24731445 330.3125 C-123.4378558 328.50120013 -121.76824403 326.63669948 -120.10913086 324.68798828 C-115.06324013 318.80993309 -109.46094144 313.45562911 -103.95288086 308.01611328 C-101.77553166 305.86534027 -99.60151984 303.71127205 -97.42944336 301.55517578 C-96.93159332 301.06562408 -96.43374329 300.57607239 -95.92080688 300.07168579 C-93.28971664 297.48532898 -93.28971664 297.48532898 -91.32788086 294.39111328 C-92.27663086 294.47361328 -93.22538086 294.55611328 -94.20288086 294.64111328 C-102.6752577 294.57278766 -109.386589 290.20920519 -115.35131836 284.53955078 C-122.29508273 276.99198082 -124.63243967 269.38105134 -124.5953064 259.27766418 C-124.59983751 258.36966668 -124.60436862 257.46166918 -124.60903704 256.5261566 C-124.62168031 253.48865854 -124.6200607 250.4513398 -124.6184082 247.41381836 C-124.62439357 245.23376231 -124.63119914 243.05370837 -124.63876343 240.87365723 C-124.65643173 234.95402991 -124.66111922 229.03446041 -124.662395 223.11480927 C-124.66381692 219.41439542 -124.66808734 215.71399625 -124.67338943 212.01358604 C-124.69284995 198.43069337 -124.69991963 184.84784624 -124.69823857 171.26494064 C-124.6973759 159.90350833 -124.72012875 148.54224808 -124.74997365 137.18085748 C-124.77615192 126.84603433 -124.78685294 116.51126976 -124.78557551 106.17641371 C-124.78506625 100.00735931 -124.79072962 93.83846444 -124.81193161 87.66944313 C-124.83133939 81.86388185 -124.83142083 76.05863184 -124.81689835 70.25305939 C-124.81481218 68.12748191 -124.81949958 66.00188482 -124.83161926 63.87634087 C-124.94125101 43.3097906 -124.94125101 43.3097906 -120.32788086 34.39111328 C-119.80967773 33.34697266 -119.29147461 32.30283203 -118.75756836 31.22705078 C-110.72394458 18.51051063 -100.70579518 11.21052398 -86.32788086 7.39111328 C-57.88352074 1.1647269 -28.99327474 -0.12030898 0 0 Z M-59.90641785 16.99308777 C-63.37586767 17.56337504 -66.85633581 18.05026237 -70.33735657 18.54408264 C-84.79023603 20.66437032 -95.11367587 23.67566028 -104.78881836 35.25048828 C-110.73094931 43.51517803 -111.47734709 52.29035152 -111.47505188 62.18943787 C-111.47872857 63.05140386 -111.48240526 63.91336986 -111.48619336 64.80145603 C-111.49716758 67.67696968 -111.50106326 70.55244712 -111.50488281 73.42797852 C-111.51115193 75.49482333 -111.51779913 77.56166704 -111.52479553 79.62850952 C-111.54577564 86.40223413 -111.5561886 93.17595882 -111.56616211 99.94970703 C-111.57021118 102.28452122 -111.57432815 104.61933529 -111.57851219 106.95414925 C-111.59754634 117.91904877 -111.6117841 128.88394162 -111.62012416 139.84885448 C-111.62990636 152.49970652 -111.65625905 165.15038405 -111.69662505 177.80117458 C-111.72677594 187.58649928 -111.74159185 197.37177388 -111.74490517 207.15714413 C-111.74725573 212.9991383 -111.75621819 218.84094564 -111.78136635 224.68288994 C-111.80463557 230.17655145 -111.8088848 235.66990291 -111.79860497 241.16360092 C-111.79810931 243.17756621 -111.80443847 245.19154672 -111.81816101 247.20546532 C-111.83587307 249.95928276 -111.82877731 252.71198641 -111.81562805 255.46580505 C-111.8265973 256.25871757 -111.83756654 257.0516301 -111.84886819 257.86857027 C-111.77286242 264.48169464 -109.73514145 269.64406044 -105.36303711 274.63330078 C-104.38657227 275.44154297 -104.38657227 275.44154297 -103.39038086 276.26611328 C-102.74198242 276.82041016 -102.09358398 277.37470703 -101.42553711 277.94580078 C-96.50227741 281.33799089 -91.95944395 281.68218465 -86.11174011 281.65853882 C-85.28823494 281.66306993 -84.46472976 281.66760104 -83.61626989 281.67226946 C-80.85886886 281.68492222 -78.10166512 281.68329253 -75.34423828 281.68164062 C-73.36635586 281.68762534 -71.38847577 281.69443076 -69.41059875 281.70199585 C-64.0386157 281.71966922 -58.66669635 281.72435181 -53.29468703 281.72562742 C-48.80916588 281.72752682 -44.32365956 281.73488486 -39.83814412 281.74197161 C-29.25423036 281.75825841 -18.67035063 281.76314031 -8.08642578 281.76171875 C2.82843737 281.76051736 13.74310278 281.78161815 24.65791589 281.81320608 C34.03132202 281.83936563 43.40466356 281.85008617 52.77810591 281.84880793 C58.3753175 281.84829819 63.97235338 281.85398835 69.56952858 281.87516403 C74.83500714 281.89454077 80.10014228 281.89467458 85.36563301 281.88013077 C87.29573824 281.87804085 89.22586493 281.88275442 91.15593338 281.89485168 C93.7960334 281.91032455 96.43495226 281.90098287 99.07502747 281.8855896 C100.2139148 281.90102029 100.2139148 281.90102029 101.37580997 281.91676271 C108.18564036 281.82934492 113.18822457 279.42339066 118.42211914 275.14111328 C123.535232 268.89175312 125.26867024 263.34742588 125.18678284 255.34759521 C125.19720113 254.03309667 125.19720113 254.03309667 125.20782989 252.69204259 C125.22603697 249.77343542 125.21585304 246.85564692 125.20556641 243.93701172 C125.2126282 241.8370961 125.22137431 239.73718556 125.23167419 237.63728333 C125.25415255 231.94490051 125.25123137 226.25279597 125.24235272 220.5603857 C125.23723654 215.80169268 125.24454082 211.04305165 125.2518248 206.28436399 C125.26882006 195.05248536 125.26526301 183.82074259 125.24853516 172.58886719 C125.23162616 161.01901706 125.24743267 149.44954457 125.27975804 137.87973571 C125.30649365 127.93209479 125.31371883 117.98457113 125.30524296 108.0368979 C125.3003239 102.10200514 125.30247379 96.16733937 125.32303047 90.23247528 C125.34144893 84.64758332 125.33535324 79.06323205 125.31083107 73.47836876 C125.30584216 71.4354574 125.30926267 69.39250441 125.32197952 67.34962654 C125.40231691 53.32816123 124.6096349 41.6357763 114.34790039 31.00048828 C113.51838867 30.20384766 113.51838867 30.20384766 112.67211914 29.39111328 C111.90899414 28.64861328 111.14586914 27.90611328 110.35961914 27.14111328 C87.44469929 12.21977012 51.19530218 14.24821205 24.82055664 14.18798828 C23.96234943 14.1851609 23.10414223 14.18233353 22.21992874 14.17942047 C17.67941248 14.16458951 13.13892667 14.15525854 8.59838867 14.15087891 C4.90818381 14.14649663 1.21821305 14.13259144 -2.47192383 14.10986328 C-31.28711293 13.90968393 -31.28711293 13.90968393 -59.90641785 16.99308777 Z " fill="#030202" transform="translate(247.327880859375,28.60888671875)"/>
<path d="M0 0 C0.67340175 -0.00175304 1.3468035 -0.00350607 2.04061136 -0.00531223 C4.30733024 -0.00998095 6.57398523 -0.0075045 8.84070683 -0.00507832 C10.47814186 -0.00694584 12.11557645 -0.00924631 13.75301033 -0.01194364 C18.26074975 -0.01807514 22.76847065 -0.01792646 27.27621329 -0.01674926 C32.13450097 -0.0165456 36.99278264 -0.02206069 41.85106754 -0.02680683 C51.37197337 -0.03512111 60.89287301 -0.03786201 70.41378217 -0.03841921 C78.15010641 -0.03889396 85.8864286 -0.04094664 93.62275219 -0.04411983 C115.54279109 -0.05292817 137.46282509 -0.05753888 159.38286578 -0.05678936 C160.56512779 -0.0567494 161.74738981 -0.05670945 162.96547794 -0.05666828 C164.7410287 -0.05660696 164.7410287 -0.05660696 166.55244917 -0.0565444 C185.74470926 -0.05613777 204.93694974 -0.06571101 224.12920415 -0.07980665 C243.82208243 -0.0941562 263.51495114 -0.10107763 283.20783478 -0.10021287 C294.26940111 -0.09988043 305.33094688 -0.10264808 316.39250851 -0.11339092 C325.80889218 -0.1224772 335.22524598 -0.12468661 344.64163213 -0.1178815 C349.44825774 -0.11460693 354.25482597 -0.11459327 359.06144619 -0.12323475 C363.45880515 -0.13105934 367.85606083 -0.12970997 372.25341714 -0.12095062 C373.84691615 -0.11940668 375.44042272 -0.12126515 377.03391283 -0.12681069 C379.19524041 -0.13383611 381.35620221 -0.1286047 383.51751709 -0.12025452 C384.71944197 -0.12047188 385.92136684 -0.12068925 387.15971369 -0.12091321 C391.076495 0.1882058 393.97512579 1.07062827 397.07167912 3.50363445 C399.89267125 7.17092423 399.44777458 11.5267379 399.45031357 15.97874641 C399.45206661 16.67072027 399.45381964 17.36269413 399.4556258 18.07563689 C399.46029557 20.40553266 399.45781779 22.73536629 399.45539188 25.0652647 C399.45725936 26.74807253 399.45955981 28.43087992 399.46225721 30.11368662 C399.46838937 34.74684321 399.46823995 39.37998179 399.46706283 44.01314151 C399.46685918 49.0063997 399.4723741 53.99965204 399.4771204 58.99290752 C399.48543504 68.77851148 399.4881756 78.56410941 399.48873278 88.3497166 C399.48920751 96.30104847 399.49126011 104.25237836 399.4944334 112.2037096 C399.50324184 134.73246129 399.50785243 157.26120821 399.50710293 179.78996163 C399.50704299 181.61264008 399.50704299 181.61264008 399.50698185 183.47214031 C399.50694097 184.68873758 399.50690009 185.90533485 399.50685797 187.1587987 C399.50645134 206.88454699 399.5160246 226.6102762 399.53012022 246.33601897 C399.54446941 266.57582322 399.55139122 286.81561815 399.55052644 307.05542761 C399.55019399 318.42439616 399.55296218 329.79334471 399.56370449 341.16230869 C399.57279031 350.84036641 399.57500056 360.51839505 399.56819507 370.19645517 C399.56492026 375.13674781 399.56490768 380.07698461 399.57354832 385.017272 C399.58137188 389.53675791 399.5800246 394.05614334 399.57126419 398.57562668 C399.56972002 400.21353992 399.57157956 401.85146051 399.57712426 403.48936509 C399.58414763 405.71059334 399.57891985 407.93146548 399.57056808 410.15268135 C399.57089414 412.00569175 399.57089414 412.00569175 399.57122678 413.8961367 C399.26595639 417.85043482 398.40249371 420.75305224 395.94667912 423.87863445 C392.55377304 426.4885622 388.72129046 426.24468548 384.58628178 426.21283245 C383.41580799 426.20672451 382.24533421 426.20061657 381.03939152 426.19432354 C379.75880863 426.18279751 378.47822575 426.17127148 377.15883732 426.15939617 C375.79356064 426.15096614 374.42828016 426.14313305 373.06299686 426.13585186 C370.88197872 426.12410227 368.70097062 426.11190476 366.51996577 426.09788299 C361.10921753 426.06327866 355.69864242 426.04715475 350.28778934 426.04223919 C349.50177052 426.0415065 348.7157517 426.04077381 347.90591413 426.04001892 C344.66386096 426.03735452 341.42180768 426.03530779 338.1797539 426.03354335 C328.98457287 426.02776286 319.79024167 426.00402591 310.59536076 425.92648602 C303.28677501 425.86497449 295.97923325 425.84246218 288.67040795 425.86529839 C284.80553469 425.87591667 280.94294534 425.86711867 277.07841778 425.81097317 C273.43868941 425.75853603 269.80254661 425.75810051 266.16267681 425.7963419 C264.20211186 425.8036637 262.2415755 425.75666936 260.28160954 425.70765972 C254.96814571 425.80674693 251.65536832 425.95366252 247.57365322 429.54962826 C245.29752048 432.31782512 243.29603541 435.14102709 241.32167912 438.12863445 C240.36095328 439.25799935 239.3759154 440.36784127 238.35292912 441.44113445 C234.00854836 446.05368686 229.79641161 450.68860978 225.82167912 455.62863445 C222.19009836 460.14217054 218.36503998 464.40234249 214.41640568 468.63498211 C211.31583391 471.98033586 208.41583143 475.43393308 205.57167912 479.00363445 C196.79883203 489.79017775 196.79883203 489.79017775 191.00527287 490.58175945 C186.47488845 490.02446932 184.22197 488.20182564 181.00917912 485.19113445 C180.44795353 484.69113934 179.88672794 484.19114422 179.30849552 483.67599773 C177.63106597 482.1759932 175.97511138 480.65499691 174.32167912 479.12863445 C172.61437418 477.58582897 170.90613653 476.04405461 169.19667912 474.50363445 C168.3961713 473.77531414 167.59566349 473.04699383 166.77089787 472.2966032 C164.24087629 470.05711042 161.64260948 467.93275886 159.00917912 465.81613445 C154.19582475 461.92607514 149.67406461 457.79991611 145.1605463 453.57297039 C140.95786967 449.65927448 136.58010603 446.02608467 132.09902287 442.43332195 C128.37162622 439.34026426 124.82513081 436.06923051 121.2921381 432.75729656 C117.32671416 429.05556155 114.90865503 426.88191443 109.40093327 426.8636198 C108.38592243 426.85534664 107.3709116 426.84707348 106.32514286 426.83854961 C104.6559454 426.84002247 104.6559454 426.84002247 102.95302677 426.84152508 C101.19414379 426.83127552 101.19414379 426.83127552 99.39972782 426.8208189 C96.18270696 426.80365547 92.9657926 426.79513466 89.74873495 426.78978062 C86.38110728 426.7815896 83.01356353 426.76066224 79.64598942 426.74057293 C71.07959188 426.69159446 62.51315885 426.65929044 53.94667912 426.62863445 C44.70543005 426.59554433 35.46424644 426.55958058 26.22309816 426.50450373 C22.87116744 426.4850017 19.51932531 426.46974957 16.16734028 426.46415997 C12.42783737 426.45672766 8.68856366 426.43746979 4.94912052 426.41574383 C3.84037067 426.41672573 2.73162083 426.41770763 1.5892725 426.41871929 C0.56862202 426.41044613 -0.45202847 426.40217297 -1.50360775 426.3936491 C-2.38739794 426.39071598 -3.27118813 426.38778286 -4.18175983 426.38476086 C-7.7473286 426.01896315 -10.60695664 424.97042064 -13.42832088 422.75363445 C-16.24931302 419.08634468 -15.80441635 414.73053101 -15.80695534 410.27852249 C-15.80870837 409.58654863 -15.81046141 408.89457478 -15.81226757 408.18163201 C-15.81693734 405.85173624 -15.81445956 403.52190261 -15.81203365 401.1920042 C-15.81390113 399.50919638 -15.81620158 397.82638899 -15.81889898 396.14358228 C-15.82503114 391.5104257 -15.82488172 386.87728712 -15.8237046 382.24412739 C-15.82350095 377.25086921 -15.82901587 372.25761686 -15.83376217 367.26436138 C-15.84207681 357.47875743 -15.84481737 347.6931595 -15.84537455 337.90755231 C-15.84584928 329.95622043 -15.84790188 322.00489055 -15.85107517 314.0535593 C-15.85988361 291.52480762 -15.8644942 268.9960607 -15.8637447 246.46730728 C-15.86370474 245.25218831 -15.86366479 244.03706935 -15.86362362 242.78512859 C-15.86358274 241.56853132 -15.86354186 240.35193406 -15.86349974 239.0984702 C-15.86309311 219.37272192 -15.87266637 199.6469927 -15.88676199 179.92124993 C-15.90111118 159.68144569 -15.90803299 139.44165076 -15.90716821 119.20184129 C-15.90683576 107.83287274 -15.90960395 96.46392419 -15.92034626 85.09496021 C-15.92943208 75.4169025 -15.93164232 65.73887385 -15.92483684 56.06081373 C-15.92156203 51.1205211 -15.92154945 46.1802843 -15.93019009 41.23999691 C-15.93801365 36.72051099 -15.93666637 32.20112557 -15.92790595 27.68164223 C-15.92636179 26.04372899 -15.92822133 24.4058084 -15.93376603 22.76790381 C-15.9407894 20.54667556 -15.93556162 18.32580343 -15.92720985 16.10458755 C-15.92742722 14.86924729 -15.92764459 13.63390702 -15.92786855 12.3611322 C-15.62259816 8.40683409 -14.75913548 5.50421667 -12.30332088 2.37863445 C-8.67901966 -0.40928957 -4.40291113 0.00258081 0 0 Z M-6.67832088 9.12863445 C-6.67832088 143.76863445 -6.67832088 278.40863445 -6.67832088 417.12863445 C34.57167912 417.45863445 75.82167912 417.78863445 118.32167912 418.12863445 C119.97167912 419.77863445 121.62167912 421.42863445 123.32167912 423.12863445 C130.12379382 429.67323604 137.14621925 435.8773934 144.50917912 441.78488445 C147.72017845 444.46071723 150.77195548 447.27223152 153.82167912 450.12863445 C158.5785729 454.58363635 163.4766886 458.76093068 168.56386662 462.83957195 C171.64701422 465.3986718 174.57940957 468.0847515 177.50917912 470.81613445 C181.9086087 474.91603745 186.4199386 478.64085755 191.32167912 482.12863445 C197.81086563 475.22220752 204.10923103 468.26946037 210.04433537 460.8747282 C212.5399438 457.86544393 215.15933054 454.98924791 217.82167912 452.12863445 C222.08394186 447.54852301 226.0668488 442.81031538 229.98964787 437.93332195 C233.45582243 433.76462289 237.14145824 429.81654772 240.84121037 425.85519695 C243.10327639 423.36870548 245.22177597 420.75351338 247.32167912 418.12863445 C294.51167912 417.79863445 341.70167912 417.46863445 390.32167912 417.12863445 C390.32167912 282.48863445 390.32167912 147.84863445 390.32167912 9.12863445 C259.31167912 9.12863445 128.30167912 9.12863445 -6.67832088 9.12863445 Z " fill="#000000" transform="translate(61.67832088470459,0.8713655471801758)"/>
<path d="M0 0 C27.39 0 54.78 0 83 0 C83 33.33 83 66.66 83 101 C55.61 101 28.22 101 0 101 C0 67.67 0 34.34 0 0 Z " fill="#E2E2E2" transform="translate(261,98)"/>
<path d="M0 0 C27.39 0 54.78 0 83 0 C83 33.33 83 66.66 83 101 C55.61 101 28.22 101 0 101 C0 67.67 0 34.34 0 0 Z " fill="#E2E2E2" transform="translate(164,98)"/>
<path d="M0 0 C7.65823318 4.47673401 13.18270402 11.4271677 15.5625 20 C17.08960888 28.81739386 14.42008712 35.65988494 9.5625 43 C4.74259083 48.72651114 -1.94165534 52.34992516 -9.328125 53.41796875 C-16.8592255 53.77521326 -22.12181506 52.008479 -28.4375 48 C-29.8296875 47.13375 -29.8296875 47.13375 -31.25 46.25 C-38.26160772 39.03806064 -39.7544652 31.17946409 -39.64453125 21.4453125 C-39.17380511 13.61171906 -35.1696191 8.18930479 -29.4375 3 C-20.82163558 -3.36958548 -9.80334471 -4.38688485 0 0 Z " fill="#050201" transform="translate(342.4375,236)"/>
<path d="M0 0 C5.5794257 4.13475297 9.52506003 9.2109377 12.1875 15.62109375 C13.2854973 25.50306949 12.72346319 34.10526781 6.75 42.24609375 C1.13109178 48.2812174 -6.60358658 51.9078611 -14.8125 52.37109375 C-23.02141342 51.9078611 -30.75609178 48.2812174 -36.375 42.24609375 C-42.38151321 34.0602262 -42.92376852 25.5477135 -41.8125 15.62109375 C-39.25572633 7.37076389 -32.80845422 2.09858536 -25.6875 -2.31640625 C-17.35036022 -5.34982782 -7.58221843 -4.40217616 0 0 Z " fill="#050201" transform="translate(192.8125,237.37890625)"/>
<path d="M0 0 C1.54194279 -0.05383563 3.08525478 -0.07458682 4.62812805 -0.06930542 C5.89479057 -0.09953293 5.89479057 -0.09953293 7.18704224 -0.13037109 C9.97954758 -0.18737457 12.76989153 -0.19908569 15.5629425 -0.20553589 C17.50865564 -0.22482149 19.45436004 -0.24500671 21.40005493 -0.26605225 C25.48149255 -0.3019895 29.56216837 -0.31309375 33.64375305 -0.30953979 C38.85968627 -0.30893118 44.07069644 -0.39069449 49.28546429 -0.49417305 C53.30672325 -0.56110883 57.32680719 -0.5730489 61.34856606 -0.56988144 C63.26994048 -0.5769359 65.19134947 -0.60333407 67.11217308 -0.64987564 C81.75063645 -0.97124676 81.75063645 -0.97124676 85.96184158 2.03052521 C89.14292562 5.186772 91.31973767 8.74911785 93.23872375 12.80227661 C93.23872375 13.13227661 93.23872375 13.46227661 93.23872375 13.80227661 C58.58872375 13.80227661 23.93872375 13.80227661 -11.76127625 13.80227661 C-10.44127625 11.49227661 -9.12127625 9.18227661 -7.76127625 6.80227661 C-7.19180771 5.68587799 -6.62233917 4.56947937 -6.03561401 3.41925049 C-3.76127625 0.80227661 -3.76127625 0.80227661 0 0 Z " fill="#FEFEFE" transform="translate(213.7612762451172,323.1977233886719)"/>
<path d="M0 0 C-1.44565046 4.25922824 -3.57297922 7.24974103 -6.375 10.75 C-11.50510822 17.2565019 -16.29238163 23.97516573 -21.04296875 30.76171875 C-21.77350464 31.7671875 -21.77350464 31.7671875 -22.51879883 32.79296875 C-24.08338962 35.02700145 -24.08338962 35.02700145 -25.37768555 37.72265625 C-27.02488631 40.70977774 -28.39610777 42.78205207 -31 45 C-36.19492478 46.22293343 -41.16617885 45.95103573 -46.4375 45.625 C-47.85075381 45.57477546 -49.26417934 45.52915907 -50.67773438 45.48828125 C-54.12208878 45.37869929 -57.55994104 45.20656243 -61 45 C-56.7523697 39.91462443 -52.29081206 35.20006668 -47.5625 30.5625 C-46.21815968 29.23237866 -44.87568113 27.90037279 -43.53515625 26.56640625 C-42.940979 25.97802979 -42.34680176 25.38965332 -41.73461914 24.78344727 C-39.91579297 22.91342262 -38.20259393 20.97596024 -36.5 19 C-35.99082031 18.4225 -35.48164063 17.845 -34.95703125 17.25 C-33.80205493 15.92212303 -32.66078331 14.58172809 -31.55224609 13.21484375 C-21.89482092 1.4594555 -15.24976713 -2.35821141 0 0 Z " fill="#57555C" transform="translate(193,324)"/>
<path d="M0 0 C15.65500603 -1.36791315 15.65500603 -1.36791315 20.953125 1.72265625 C23.21310503 4.02609743 25.11954119 6.3797563 27 9 C28.02738352 10.22050072 29.06887287 11.42928499 30.125 12.625 C30.67414063 13.26695312 31.22328125 13.90890625 31.7890625 14.5703125 C34.90898979 17.99892518 38.20694908 21.23846344 41.5 24.5 C48.09652995 31.03951794 54.20021692 37.74416417 60 45 C35.67526953 47.82930059 35.67526953 47.82930059 28.56005859 43.5234375 C24.50564434 39.52151756 21.96605235 34.62735958 19.40234375 29.58837891 C17.02321605 25.19709898 13.99074252 21.30043578 11 17.3125 C9.46759318 15.20194091 7.94448299 13.08491771 6.421875 10.96728516 C5.46122822 9.63814852 4.49223122 8.31501324 3.515625 6.99755859 C0 2.21418539 0 2.21418539 0 0 Z " fill="#57555C" transform="translate(316,324)"/>
<path d="M0 0 C1.16801147 -0.00615326 2.33602295 -0.01230652 3.53942871 -0.01864624 C4.79678833 -0.00427521 6.05414795 0.01009583 7.34960938 0.02490234 C8.64402954 0.02581879 9.93844971 0.02673523 11.27209473 0.02767944 C14.0092523 0.03080377 16.7458847 0.04733899 19.48291016 0.07421875 C22.98679988 0.10819858 26.49011305 0.1158471 29.99414825 0.11432838 C33.34187882 0.11500383 36.68942133 0.13268623 40.03710938 0.14990234 C41.29446899 0.15212799 42.55182861 0.15435364 43.84729004 0.15664673 C45.01530151 0.16940643 46.18331299 0.18216614 47.38671875 0.1953125 C48.41390015 0.2029361 49.44108154 0.21055969 50.49938965 0.21841431 C53.24682959 0.49114774 54.89139206 0.98670078 57.19335938 2.48583984 C58.71827935 5.5356798 58.42898486 8.12817674 58.19335938 11.48583984 C57.05175781 13.18423462 57.05175781 13.18423462 55.19335938 14.48583984 C52.49902344 14.86679077 52.49902344 14.86679077 49.20898438 14.87402344 C47.97760742 14.88347992 46.74623047 14.8929364 45.47753906 14.90267944 C44.13280923 14.89730973 42.78808233 14.89115678 41.44335938 14.88427734 C40.06477708 14.88629831 38.68619582 14.88920994 37.30761719 14.89297485 C34.41916724 14.89739719 31.5309957 14.89097043 28.64257812 14.87695312 C24.94006184 14.85986083 21.23819792 14.86970256 17.53570557 14.88767052 C14.68924036 14.89851106 11.84292983 14.89506088 8.99645996 14.88728714 C7.63130618 14.88528586 6.26613836 14.88774192 4.90100098 14.8947258 C2.99324817 14.90234375 1.08544614 14.8886739 -0.82226562 14.87402344 C-2.45083496 14.87044327 -2.45083496 14.87044327 -4.11230469 14.86679077 C-6.80664062 14.48583984 -6.80664062 14.48583984 -8.65332031 13.17642212 C-10.62363331 10.28825983 -10.22049372 7.85578645 -9.80664062 4.48583984 C-6.85454908 0.59751201 -4.79619136 -0.0133076 0 0 Z " fill="#050201" transform="translate(229.806640625,267.51416015625)"/>
<path d="M0 0 C1.23137695 -0.00945648 2.46275391 -0.01891296 3.73144531 -0.02865601 C5.07617514 -0.0232863 6.42090204 -0.01713334 7.765625 -0.01025391 C9.1442073 -0.01227487 10.52278855 -0.0151865 11.90136719 -0.01895142 C14.78981714 -0.02337375 17.67798867 -0.01694699 20.56640625 -0.00292969 C24.26892254 0.01416261 27.97078646 0.00432088 31.67327881 -0.01364708 C34.51974402 -0.02448762 37.36605455 -0.02103744 40.21252441 -0.0132637 C41.57767819 -0.01126242 42.94284602 -0.01371849 44.3079834 -0.02070236 C46.2157362 -0.02832031 48.12353824 -0.01465046 50.03125 0 C51.65981934 0.00358017 51.65981934 0.00358017 53.32128906 0.00723267 C56.015625 0.38818359 56.015625 0.38818359 57.86621094 1.69369507 C59.79965819 4.54402054 59.37145023 7.06714814 59.015625 10.38818359 C57.86621094 12.08267212 57.86621094 12.08267212 56.015625 13.38818359 C53.32128906 13.76913452 53.32128906 13.76913452 50.03125 13.77636719 C48.79987305 13.78582367 47.56849609 13.79528015 46.29980469 13.80502319 C44.95507486 13.79965348 43.61034796 13.79350053 42.265625 13.78662109 C40.8870427 13.78864206 39.50846145 13.79155369 38.12988281 13.7953186 C35.24143286 13.79974094 32.35326133 13.79331418 29.46484375 13.77929688 C25.76232746 13.76220458 22.06046354 13.77204631 18.35797119 13.79001427 C15.51150598 13.80085481 12.66519545 13.79740463 9.81872559 13.78963089 C8.45357181 13.78762961 7.08840398 13.79008567 5.7232666 13.79706955 C3.8155138 13.8046875 1.90771176 13.79101765 0 13.77636719 C-1.62856934 13.77278702 -1.62856934 13.77278702 -3.29003906 13.76913452 C-5.984375 13.38818359 -5.984375 13.38818359 -7.83496094 12.08267212 C-9.76840819 9.23234665 -9.34020023 6.70921905 -8.984375 3.38818359 C-6.57568292 -0.16275703 -4.09051534 0.0089924 0 0 Z " fill="#000000" transform="translate(228.984375,240.61181640625)"/>
<path d="M0 0 C1.23137695 -0.00945648 2.46275391 -0.01891296 3.73144531 -0.02865601 C5.07617514 -0.0232863 6.42090204 -0.01713334 7.765625 -0.01025391 C9.1442073 -0.01227487 10.52278855 -0.0151865 11.90136719 -0.01895142 C14.78981714 -0.02337375 17.67798867 -0.01694699 20.56640625 -0.00292969 C24.26892254 0.01416261 27.97078646 0.00432088 31.67327881 -0.01364708 C34.51974402 -0.02448762 37.36605455 -0.02103744 40.21252441 -0.0132637 C41.57767819 -0.01126242 42.94284602 -0.01371849 44.3079834 -0.02070236 C46.2157362 -0.02832031 48.12353824 -0.01465046 50.03125 0 C51.65981934 0.00358017 51.65981934 0.00358017 53.32128906 0.00723267 C56.015625 0.38818359 56.015625 0.38818359 57.86621094 1.69369507 C59.79965819 4.54402054 59.37145023 7.06714814 59.015625 10.38818359 C57.86621094 12.08267212 57.86621094 12.08267212 56.015625 13.38818359 C53.32128906 13.76913452 53.32128906 13.76913452 50.03125 13.77636719 C48.79987305 13.78582367 47.56849609 13.79528015 46.29980469 13.80502319 C44.95507486 13.79965348 43.61034796 13.79350053 42.265625 13.78662109 C40.8870427 13.78864206 39.50846145 13.79155369 38.12988281 13.7953186 C35.24143286 13.79974094 32.35326133 13.79331418 29.46484375 13.77929688 C25.76232746 13.76220458 22.06046354 13.77204631 18.35797119 13.79001427 C15.51150598 13.80085481 12.66519545 13.79740463 9.81872559 13.78963089 C8.45357181 13.78762961 7.08840398 13.79008567 5.7232666 13.79706955 C3.8155138 13.8046875 1.90771176 13.79101765 0 13.77636719 C-1.62856934 13.77278702 -1.62856934 13.77278702 -3.29003906 13.76913452 C-5.984375 13.38818359 -5.984375 13.38818359 -7.83496094 12.08267212 C-9.76840819 9.23234665 -9.34020023 6.70921905 -8.984375 3.38818359 C-6.57568292 -0.16275703 -4.09051534 0.0089924 0 0 Z " fill="#000000" transform="translate(228.984375,56.61181640625)"/>
<path d="M0 0 C4.40830916 2.16407904 7.12843553 4.42506462 9 9 C9.53366173 13.80295554 9.541552 15.95701097 7.3125 20.25 C1.9618165 26.61297498 1.9618165 26.61297498 -2.296875 27.453125 C-7.06705693 27.77113713 -10.22912969 27.36548496 -14 24.3125 C-17.45234899 20.84390466 -18.74211076 17.97715081 -19.375 13.125 C-18.76457986 8.03816553 -16.64186741 4.49699675 -12.875 1.0625 C-8.54729994 -0.53686742 -4.55432641 -0.656874 0 0 Z " fill="#F8D12C" transform="translate(335,248)"/>
<path d="M0 0 C3.88924158 1.8057193 5.51165031 3.26747547 7.875 6.8125 C9.19527938 10.55329157 9.49277138 13.05782897 9 17 C6.26114877 22.08643801 3.4898792 25.17004027 -2 27 C-8.65983797 27.7769811 -8.65983797 27.7769811 -12.0078125 25.8359375 C-16.7977056 21.92786573 -18.69920591 18.75727916 -19.375 12.5625 C-18.85257304 7.59944387 -16.85123945 4.68695196 -13.1953125 1.35546875 C-9.12845131 -1.15556476 -4.6088788 -0.59447857 0 0 Z " fill="#F8D12C" transform="translate(183,248)"/>
<path d="M0 0 C2.375 1.0625 2.375 1.0625 4 3 C4.43060657 6.44485259 4.63335287 8.84506242 2.9375 11.9375 C-0.11976176 13.6140629 -2.5906288 13.36528977 -6 13 C-7.9375 11.9375 -7.9375 11.9375 -9 10 C-9.63316583 4.09045226 -9.63316583 4.09045226 -7.875 1.0625 C-5.09808875 -0.51108304 -3.13770673 -0.38420899 0 0 Z " fill="#070201" transform="translate(312,57)"/>
<path d="M0 0 C1.9375 1.0625 1.9375 1.0625 3 3 C3.36528977 6.4093712 3.6140629 8.88023824 1.9375 11.9375 C-1.15493758 13.63335287 -3.55514741 13.43060657 -7 13 C-9.66266871 10.76679398 -9.95347082 9.3799883 -10.375 5.9375 C-10 3 -10 3 -8.9375 1.125 C-5.8930714 -0.64273274 -3.4368988 -0.36823916 0 0 Z " fill="#080302" transform="translate(202,57)"/>
</svg>
